<svg xmlns="http://www.w3.org/2000/svg" viewBox="0 0 128 128" role="img" aria-label="星辰学院">
  <defs>
    <linearGradient id="bg" x1="22" y1="18" x2="106" y2="110" gradientUnits="userSpaceOnUse">
      <stop stop-color="#171c38"/>
      <stop offset="1" stop-color="#080c18"/>
    </linearGradient>
    <radialGradient id="glow" cx="64" cy="60" r="68" gradientUnits="userSpaceOnUse">
      <stop stop-color="#c9a84c" stop-opacity=".2"/>
      <stop offset=".64" stop-color="#c9a84c" stop-opacity=".04"/>
      <stop offset="1" stop-color="#c9a84c" stop-opacity="0"/>
    </radialGradient>
  </defs>
  <rect x="8" y="8" width="112" height="112" rx="24" fill="url(#bg)"/>
  <rect x="8" y="8" width="112" height="112" rx="24" fill="url(#glow)"/>
  <rect x="12" y="12" width="104" height="104" rx="22" fill="none" stroke="#c9a84c" stroke-opacity=".36" stroke-width="2"/>
  <g fill="none" stroke="#e8cc6e" stroke-linecap="round" stroke-linejoin="round">
    <path d="M34 36h31v58H45c-7 0-13-6-13-13V39c0-2 1-3 2-3Z" fill="#c9a84c" fill-opacity=".18" stroke-width="4"/>
    <path d="M65 36h28c2 0 3 1 3 3v42c0 7-6 13-13 13H65V36Z" fill="#c9a84c" fill-opacity=".1" stroke-width="4"/>
    <path d="M65 36v58" stroke-width="3"/>
    <path d="M46 53h9M46 66h9M75 53h11M75 66h11" stroke-width="3" stroke-opacity=".72"/>
  </g>
  <path d="M64 18l4 12 12 4-12 4-4 12-4-12-12-4 12-4 4-12Z" fill="#f1d875"/>
  <path d="M91 19l3 8 8 3-8 3-3 8-3-8-8-3 8-3 3-8Z" fill="#f1d875"/>
</svg>
